{
    "asset": {
        "version": "2.0",
        "generator": "Open Asset Import Library (assimp v5.2.cf7d3637)"
    },
    "extensionsUsed": [
        "KHR_materials_volume",
        "FB_ngon_encoding"
    ],
    "accessors": [
        {
            "bufferView": 0,
            "byteOffset": 0,
            "componentType": 5126,
            "count": 60348,
            "type": "VEC3",
            "max": [
                0.8777570128440857,
                0.993291974067688,
                0.4789179861545563
            ],
            "min": [
                -0.8770949840545654,
                -0.995943009853363,
                -0.4773769974708557
            ]
        },
        {
            "bufferView": 1,
            "byteOffset": 0,
            "componentType": 5126,
            "count": 60348,
            "type": "VEC3",
            "max": [
                0.9999724626541138,
                0.9999842643737793,
                0.9999904632568359
            ],
            "min": [
                -0.9998993873596191,
                -0.9999185800552368,
                -0.9999958276748657
            ]
        },
        {
            "bufferView": 2,
            "byteOffset": 0,
            "componentType": 5126,
            "count": 60348,
            "type": "VEC2",
            "max": [
                0.9990234375,
                0.9990234375
            ],
            "min": [
                0.0009398460388183594,
                0.0021495819091796877
            ]
        },
        {
            "bufferView": 3,
            "byteOffset": 0,
            "componentType": 5125,
            "count": 60348,
            "type": "SCALAR",
            "max": [
                60347
            ],
            "min": [
                0
            ]
        }
    ],
    "buffers": [
        {
            "byteLength": 2172528,
            "uri": "result.bin"
        }
    ],
    "bufferViews": [
        {
            "buffer": 0,
            "byteOffset": 0,
            "byteLength": 724176,
            "target": 34962
        },
        {
            "buffer": 0,
            "byteOffset": 724176,
            "byteLength": 724176,
            "target": 34962
        },
        {
            "buffer": 0,
            "byteOffset": 1448352,
            "byteLength": 482784,
            "target": 34962
        },
        {
            "buffer": 0,
            "byteOffset": 1931136,
            "byteLength": 241392,
            "target": 34963
        }
    ],
    "images": [
        {
            "uri": "data:image/jpeg;base64,"
        }
    ],
    "materials": [
        {
            "name": "material",
            "pbrMetallicRoughness": {
                "baseColorTexture": {
                    "index": 0
                },
                "metallicFactor": 0.0,
                "roughnessFactor": 0.800000011920929
            },
            "doubleSided": true
        },
        {
            "name": "material"
        }
    ],
    "meshes": [
        {
            "name": "meshes[0]",
            "primitives": [
                {
                    "mode": 4,
                    "material": 0,
                    "indices": 3,
                    "attributes": {
                        "POSITION": 0,
                        "NORMAL": 1,
                        "TEXCOORD_0": 2
                    }
                }
            ]
        }
    ],
    "nodes": [
        {
            "name": "nodes[0]",
            "mesh": 0
        }
    ],
    "samplers": [
        {
            "magFilter": 9729,
            "minFilter": 9987
        }
    ],
    "scenes": [
        {
            "nodes": [
                0
            ]
        }
    ],
    "textures": [
        {
            "source": 0,
            "sampler": 0
        }
    ],
    "scene": 0
}